<mxfile host="app.diagrams.net" modified="2023-12-29T03:29:26.010Z" agent="Mozilla/5.0 (Windows NT 10.0; Win64; x64) AppleWebKit/537.36 (KHTML, like Gecko) Chrome/120.0.0.0 Safari/537.36" etag="-GkMcQ4y_bNBTsHP_mt1" version="22.1.15" type="github">
  <diagram id="C5RBs43oDa-KdzZeNtuy" name="Page-1">
    <mxGraphModel dx="2261" dy="780" grid="1" gridSize="10" guides="1" tooltips="1" connect="1" arrows="1" fold="1" page="1" pageScale="1" pageWidth="827" pageHeight="1169" math="0" shadow="0">
      <root>
        <mxCell id="WIyWlLk6GJQsqaUBKTNV-0" />
        <mxCell id="WIyWlLk6GJQsqaUBKTNV-1" parent="WIyWlLk6GJQsqaUBKTNV-0" />
        <mxCell id="aYssn_eNHuf3L4RiwJIA-0" value="회원가입 Flowchart" style="rounded=0;whiteSpace=wrap;html=1;" vertex="1" parent="WIyWlLk6GJQsqaUBKTNV-1">
          <mxGeometry x="-170" y="20" width="120" height="40" as="geometry" />
        </mxCell>
        <mxCell id="aYssn_eNHuf3L4RiwJIA-10" value="" style="edgeStyle=orthogonalEdgeStyle;rounded=0;orthogonalLoop=1;jettySize=auto;html=1;" edge="1" parent="WIyWlLk6GJQsqaUBKTNV-1" source="aYssn_eNHuf3L4RiwJIA-3" target="aYssn_eNHuf3L4RiwJIA-5">
          <mxGeometry relative="1" as="geometry" />
        </mxCell>
        <mxCell id="aYssn_eNHuf3L4RiwJIA-3" value="시작" style="strokeWidth=2;html=1;shape=mxgraph.flowchart.terminator;whiteSpace=wrap;" vertex="1" parent="WIyWlLk6GJQsqaUBKTNV-1">
          <mxGeometry x="130" y="90" width="100" height="60" as="geometry" />
        </mxCell>
        <mxCell id="aYssn_eNHuf3L4RiwJIA-11" value="" style="edgeStyle=orthogonalEdgeStyle;rounded=0;orthogonalLoop=1;jettySize=auto;html=1;" edge="1" parent="WIyWlLk6GJQsqaUBKTNV-1" source="aYssn_eNHuf3L4RiwJIA-5" target="aYssn_eNHuf3L4RiwJIA-6">
          <mxGeometry relative="1" as="geometry" />
        </mxCell>
        <mxCell id="aYssn_eNHuf3L4RiwJIA-5" value="ID 입력" style="shape=parallelogram;html=1;strokeWidth=2;perimeter=parallelogramPerimeter;whiteSpace=wrap;rounded=1;arcSize=12;size=0.23;" vertex="1" parent="WIyWlLk6GJQsqaUBKTNV-1">
          <mxGeometry x="120" y="190" width="120" height="50" as="geometry" />
        </mxCell>
        <mxCell id="aYssn_eNHuf3L4RiwJIA-12" value="" style="edgeStyle=orthogonalEdgeStyle;rounded=0;orthogonalLoop=1;jettySize=auto;html=1;" edge="1" parent="WIyWlLk6GJQsqaUBKTNV-1" source="aYssn_eNHuf3L4RiwJIA-6" target="aYssn_eNHuf3L4RiwJIA-7">
          <mxGeometry relative="1" as="geometry" />
        </mxCell>
        <mxCell id="aYssn_eNHuf3L4RiwJIA-6" value="중복버튼 클릭" style="shape=parallelogram;html=1;strokeWidth=2;perimeter=parallelogramPerimeter;whiteSpace=wrap;rounded=1;arcSize=12;size=0.23;" vertex="1" parent="WIyWlLk6GJQsqaUBKTNV-1">
          <mxGeometry x="120" y="280" width="120" height="50" as="geometry" />
        </mxCell>
        <mxCell id="aYssn_eNHuf3L4RiwJIA-13" value="" style="edgeStyle=orthogonalEdgeStyle;rounded=0;orthogonalLoop=1;jettySize=auto;html=1;" edge="1" parent="WIyWlLk6GJQsqaUBKTNV-1" source="aYssn_eNHuf3L4RiwJIA-7" target="aYssn_eNHuf3L4RiwJIA-8">
          <mxGeometry relative="1" as="geometry" />
        </mxCell>
        <mxCell id="aYssn_eNHuf3L4RiwJIA-41" value="" style="edgeStyle=orthogonalEdgeStyle;rounded=0;orthogonalLoop=1;jettySize=auto;html=1;" edge="1" parent="WIyWlLk6GJQsqaUBKTNV-1" source="aYssn_eNHuf3L4RiwJIA-7" target="aYssn_eNHuf3L4RiwJIA-16">
          <mxGeometry relative="1" as="geometry" />
        </mxCell>
        <mxCell id="aYssn_eNHuf3L4RiwJIA-7" value="ID중복 확인" style="rounded=1;whiteSpace=wrap;html=1;absoluteArcSize=1;arcSize=14;strokeWidth=2;" vertex="1" parent="WIyWlLk6GJQsqaUBKTNV-1">
          <mxGeometry x="130" y="370" width="100" height="50" as="geometry" />
        </mxCell>
        <mxCell id="aYssn_eNHuf3L4RiwJIA-15" value="" style="edgeStyle=orthogonalEdgeStyle;rounded=0;orthogonalLoop=1;jettySize=auto;html=1;" edge="1" parent="WIyWlLk6GJQsqaUBKTNV-1" source="aYssn_eNHuf3L4RiwJIA-8" target="aYssn_eNHuf3L4RiwJIA-9">
          <mxGeometry relative="1" as="geometry" />
        </mxCell>
        <mxCell id="aYssn_eNHuf3L4RiwJIA-8" value="회원 TBL" style="strokeWidth=2;html=1;shape=mxgraph.flowchart.database;whiteSpace=wrap;" vertex="1" parent="WIyWlLk6GJQsqaUBKTNV-1">
          <mxGeometry x="290" y="365" width="60" height="60" as="geometry" />
        </mxCell>
        <mxCell id="aYssn_eNHuf3L4RiwJIA-17" value="" style="edgeStyle=orthogonalEdgeStyle;rounded=0;orthogonalLoop=1;jettySize=auto;html=1;" edge="1" parent="WIyWlLk6GJQsqaUBKTNV-1" source="aYssn_eNHuf3L4RiwJIA-9" target="aYssn_eNHuf3L4RiwJIA-16">
          <mxGeometry relative="1" as="geometry" />
        </mxCell>
        <mxCell id="aYssn_eNHuf3L4RiwJIA-9" value="ID존재?" style="strokeWidth=2;html=1;shape=mxgraph.flowchart.decision;whiteSpace=wrap;" vertex="1" parent="WIyWlLk6GJQsqaUBKTNV-1">
          <mxGeometry x="280" y="460" width="80" height="80" as="geometry" />
        </mxCell>
        <mxCell id="aYssn_eNHuf3L4RiwJIA-14" style="edgeStyle=orthogonalEdgeStyle;rounded=0;orthogonalLoop=1;jettySize=auto;html=1;entryX=1;entryY=0.5;entryDx=0;entryDy=0;entryPerimeter=0;" edge="1" parent="WIyWlLk6GJQsqaUBKTNV-1" source="aYssn_eNHuf3L4RiwJIA-9" target="aYssn_eNHuf3L4RiwJIA-3">
          <mxGeometry relative="1" as="geometry">
            <Array as="points">
              <mxPoint x="420" y="500" />
              <mxPoint x="420" y="120" />
            </Array>
          </mxGeometry>
        </mxCell>
        <mxCell id="aYssn_eNHuf3L4RiwJIA-31" value="" style="edgeStyle=orthogonalEdgeStyle;rounded=0;orthogonalLoop=1;jettySize=auto;html=1;" edge="1" parent="WIyWlLk6GJQsqaUBKTNV-1" source="aYssn_eNHuf3L4RiwJIA-16" target="aYssn_eNHuf3L4RiwJIA-30">
          <mxGeometry relative="1" as="geometry" />
        </mxCell>
        <mxCell id="aYssn_eNHuf3L4RiwJIA-16" value="PW 입력" style="shape=parallelogram;html=1;strokeWidth=2;perimeter=parallelogramPerimeter;whiteSpace=wrap;rounded=1;arcSize=12;size=0.23;" vertex="1" parent="WIyWlLk6GJQsqaUBKTNV-1">
          <mxGeometry x="120" y="475" width="120" height="50" as="geometry" />
        </mxCell>
        <mxCell id="aYssn_eNHuf3L4RiwJIA-35" value="" style="edgeStyle=orthogonalEdgeStyle;rounded=0;orthogonalLoop=1;jettySize=auto;html=1;" edge="1" parent="WIyWlLk6GJQsqaUBKTNV-1" source="aYssn_eNHuf3L4RiwJIA-30" target="aYssn_eNHuf3L4RiwJIA-34">
          <mxGeometry relative="1" as="geometry" />
        </mxCell>
        <mxCell id="aYssn_eNHuf3L4RiwJIA-44" value="" style="edgeStyle=orthogonalEdgeStyle;rounded=0;orthogonalLoop=1;jettySize=auto;html=1;" edge="1" parent="WIyWlLk6GJQsqaUBKTNV-1" source="aYssn_eNHuf3L4RiwJIA-30" target="aYssn_eNHuf3L4RiwJIA-32">
          <mxGeometry relative="1" as="geometry" />
        </mxCell>
        <mxCell id="aYssn_eNHuf3L4RiwJIA-30" value="PW 암호화정책&lt;br&gt;유효성 검사" style="rounded=1;whiteSpace=wrap;html=1;absoluteArcSize=1;arcSize=14;strokeWidth=2;" vertex="1" parent="WIyWlLk6GJQsqaUBKTNV-1">
          <mxGeometry x="130" y="570" width="100" height="50" as="geometry" />
        </mxCell>
        <mxCell id="aYssn_eNHuf3L4RiwJIA-43" style="edgeStyle=orthogonalEdgeStyle;rounded=0;orthogonalLoop=1;jettySize=auto;html=1;exitX=0.5;exitY=0;exitDx=0;exitDy=0;exitPerimeter=0;" edge="1" parent="WIyWlLk6GJQsqaUBKTNV-1" source="aYssn_eNHuf3L4RiwJIA-32">
          <mxGeometry relative="1" as="geometry">
            <mxPoint x="-40" y="620" as="sourcePoint" />
            <mxPoint x="180" y="450" as="targetPoint" />
            <Array as="points">
              <mxPoint x="20" y="450" />
            </Array>
          </mxGeometry>
        </mxCell>
        <mxCell id="aYssn_eNHuf3L4RiwJIA-32" value="정책을 &lt;br&gt;만족하는지" style="strokeWidth=2;html=1;shape=mxgraph.flowchart.decision;whiteSpace=wrap;" vertex="1" parent="WIyWlLk6GJQsqaUBKTNV-1">
          <mxGeometry x="-20" y="555" width="80" height="80" as="geometry" />
        </mxCell>
        <mxCell id="aYssn_eNHuf3L4RiwJIA-34" value="PW 다시 입력" style="shape=parallelogram;html=1;strokeWidth=2;perimeter=parallelogramPerimeter;whiteSpace=wrap;rounded=1;arcSize=12;size=0.23;" vertex="1" parent="WIyWlLk6GJQsqaUBKTNV-1">
          <mxGeometry x="120" y="670" width="120" height="50" as="geometry" />
        </mxCell>
        <mxCell id="aYssn_eNHuf3L4RiwJIA-36" value="YES" style="text;html=1;strokeColor=none;fillColor=none;align=center;verticalAlign=middle;whiteSpace=wrap;rounded=0;" vertex="1" parent="WIyWlLk6GJQsqaUBKTNV-1">
          <mxGeometry x="414" y="440" width="60" height="30" as="geometry" />
        </mxCell>
        <mxCell id="aYssn_eNHuf3L4RiwJIA-37" value="NO" style="text;html=1;strokeColor=none;fillColor=none;align=center;verticalAlign=middle;whiteSpace=wrap;rounded=0;" vertex="1" parent="WIyWlLk6GJQsqaUBKTNV-1">
          <mxGeometry x="230" y="500" width="60" height="30" as="geometry" />
        </mxCell>
        <mxCell id="aYssn_eNHuf3L4RiwJIA-38" value="MASSAGE" style="swimlane;whiteSpace=wrap;html=1;" vertex="1" parent="WIyWlLk6GJQsqaUBKTNV-1">
          <mxGeometry x="460" y="430" width="210" height="60" as="geometry" />
        </mxCell>
        <mxCell id="aYssn_eNHuf3L4RiwJIA-39" value="MASSAGE" style="swimlane;whiteSpace=wrap;html=1;" vertex="1" parent="WIyWlLk6GJQsqaUBKTNV-1">
          <mxGeometry x="260" y="540" width="210" height="60" as="geometry" />
        </mxCell>
        <mxCell id="aYssn_eNHuf3L4RiwJIA-40" value="MASSAGE" style="swimlane;whiteSpace=wrap;html=1;" vertex="1" parent="WIyWlLk6GJQsqaUBKTNV-1">
          <mxGeometry x="-250" y="380" width="210" height="60" as="geometry" />
        </mxCell>
      </root>
    </mxGraphModel>
  </diagram>
</mxfile>
